<svg width="23" height="24" viewBox="0 0 23 24" fill="none" xmlns="http://www.w3.org/2000/svg">
<path d="M1.91675 14.875V9.125C1.91675 7.60001 2.52255 6.13747 3.60088 5.05914C4.67922 3.9808 6.14175 3.375 7.66675 3.375H15.3334C16.8584 3.375 18.3209 3.9808 19.3993 5.05914C20.4776 6.13747 21.0834 7.60001 21.0834 9.125V14.875C21.0834 16.4 20.4776 17.8625 19.3993 18.9409C18.3209 20.0192 16.8584 20.625 15.3334 20.625H7.66675C6.14175 20.625 4.67922 20.0192 3.60088 18.9409C2.52255 17.8625 1.91675 16.4 1.91675 14.875Z" stroke="#01070C" stroke-width="1.5"/>
<path d="M11.5 14.875V9.125H13.8958C14.2771 9.125 14.6427 9.27645 14.9123 9.54603C15.1819 9.81562 15.3333 10.1813 15.3333 10.5625C15.3333 10.9437 15.1819 11.3094 14.9123 11.579C14.6427 11.8485 14.2771 12 13.8958 12H11.5M8.625 9.125V14.875" stroke="#01070C" stroke-width="1.5" stroke-linecap="round" stroke-linejoin="round"/>
</svg>
