<svg width="23" height="24" viewBox="0 0 23 24" fill="none" xmlns="http://www.w3.org/2000/svg">
<g clip-path="url(#clip0_237_7734)">
<path d="M13.8001 19.0295C13.8001 18.8601 13.7328 18.6976 13.6129 18.5778C13.4931 18.4579 13.3306 18.3906 13.1612 18.3906H9.32785C9.15841 18.3906 8.99591 18.4579 8.87609 18.5778C8.75628 18.6976 8.68896 18.8601 8.68896 19.0295C8.68896 19.199 8.75628 19.3615 8.87609 19.4813C8.99591 19.6011 9.15841 19.6684 9.32785 19.6684H13.1612C13.3306 19.6684 13.4931 19.6011 13.6129 19.4813C13.7328 19.3615 13.8001 19.199 13.8001 19.0295Z" fill="#01070C"/>
<path d="M14.4004 15.832H10.5671C10.3977 15.832 10.2352 15.8993 10.1153 16.0192C9.99553 16.139 9.92822 16.3015 9.92822 16.4709C9.92822 16.6404 9.99553 16.8029 10.1153 16.9227C10.2352 17.0425 10.3977 17.1098 10.5671 17.1098H14.4004C14.5699 17.1098 14.7324 17.0425 14.8522 16.9227C14.972 16.8029 15.0393 16.6404 15.0393 16.4709C15.0393 16.3015 14.972 16.139 14.8522 16.0192C14.7324 15.8993 14.5699 15.832 14.4004 15.832Z" fill="#01070C"/>
<path d="M14.0555 20.9453H10.2221C10.0527 20.9453 9.89019 21.0126 9.77038 21.1324C9.65056 21.2523 9.58325 21.4148 9.58325 21.5842C9.58325 21.7536 9.65056 21.9161 9.77038 22.036C9.89019 22.1558 10.0527 22.2231 10.2221 22.2231H14.0555C14.2249 22.2231 14.3874 22.1558 14.5072 22.036C14.6271 21.9161 14.6944 21.7536 14.6944 21.5842C14.6944 21.4148 14.6271 21.2523 14.5072 21.1324C14.3874 21.0126 14.2249 20.9453 14.0555 20.9453Z" fill="#01070C"/>
<path d="M20.8916 20.9453H16.4194C16.25 20.9453 16.0875 21.0126 15.9676 21.1324C15.8478 21.2523 15.7805 21.4148 15.7805 21.5842C15.7805 21.7536 15.8478 21.9161 15.9676 22.036C16.0875 22.1558 16.25 22.2231 16.4194 22.2231H20.8916C21.0611 22.2231 21.2236 22.1558 21.3434 22.036C21.4632 21.9161 21.5305 21.7536 21.5305 21.5842C21.5305 21.4148 21.4632 21.2523 21.3434 21.1324C21.2236 21.0126 21.0611 20.9453 20.8916 20.9453Z" fill="#01070C"/>
<path d="M21.5305 18.3906H17.0583C16.8889 18.3906 16.7264 18.4579 16.6066 18.5778C16.4867 18.6976 16.4194 18.8601 16.4194 19.0295C16.4194 19.199 16.4867 19.3615 16.6066 19.4813C16.7264 19.6011 16.8889 19.6684 17.0583 19.6684H21.5305C21.7 19.6684 21.8625 19.6011 21.9823 19.4813C22.1021 19.3615 22.1694 19.199 22.1694 19.0295C22.1694 18.8601 22.1021 18.6976 21.9823 18.5778C21.8625 18.4579 21.7 18.3906 21.5305 18.3906Z" fill="#01070C"/>
<path d="M21.5561 17.1107C21.3688 14.8611 20.7575 12.6673 19.7544 10.6451C18.7935 8.81773 17.4089 7.24699 15.7166 6.06429L17.2499 2.68457C17.2994 2.58356 17.3213 2.47129 17.3134 2.35911C17.3056 2.24693 17.2682 2.13881 17.2052 2.04568C17.1471 1.96398 17.0705 1.89711 16.9817 1.85049C16.8929 1.80388 16.7944 1.77882 16.6941 1.77735H6.26106C6.15366 1.77708 6.04792 1.80389 5.95362 1.85531C5.85933 1.90673 5.77951 1.98109 5.72156 2.07151C5.66361 2.16194 5.6294 2.26552 5.62207 2.37267C5.61475 2.47983 5.63456 2.5871 5.67967 2.68457L7.24495 6.07707C5.56497 7.26088 4.1899 8.82646 3.23272 10.6451C1.85911 13.2007 1.43106 16.3248 1.31606 18.4907C1.29723 18.8077 1.34427 19.1253 1.45423 19.4233C1.56419 19.7212 1.73467 19.9932 1.95495 20.2221C2.18645 20.4469 2.46058 20.6232 2.7612 20.7406C3.06182 20.858 3.38288 20.9141 3.7055 20.9057H7.66661V19.6662H3.65439C3.5098 19.6658 3.36679 19.6361 3.23395 19.579C3.10111 19.5219 2.98117 19.4386 2.88134 19.334C2.78135 19.2303 2.70414 19.1068 2.65463 18.9714C2.60512 18.8361 2.58442 18.692 2.59384 18.5482C2.68328 16.8807 3.03467 13.7054 4.35717 11.2329C5.28945 9.46133 6.66805 7.96381 8.35661 6.88846H8.9955C8.56256 7.48739 8.16368 8.11023 7.80078 8.75401C7.43116 9.43905 7.1171 10.1526 6.86161 10.8879L7.73689 11.4757C7.99548 10.7128 8.31378 9.97157 8.68884 9.25873C9.14939 8.42988 9.67267 7.63748 10.2541 6.88846H10.893C11.3216 7.91284 11.6241 8.98552 11.7938 10.0829C11.9326 10.8975 12.001 11.7226 11.9983 12.549L13.0077 11.8398C12.9796 11.1973 12.9113 10.5572 12.8033 9.92318C12.6319 8.88702 12.3579 7.87045 11.9855 6.88846H12.4838L13.0652 5.61068H8.43967L7.25772 3.05512H15.6974L14.1002 6.54985C14.374 6.6965 14.6367 6.86306 14.8861 7.04818C16.4514 8.12815 17.7352 9.56751 18.6299 11.2457C19.5261 13.0858 20.0824 15.0727 20.2719 17.1107H21.5561Z" fill="#01070C"/>
</g>
<defs>
<clipPath id="clip0_237_7734">
<rect width="23" height="23" fill="white" transform="translate(0 0.5)"/>
</clipPath>
</defs>
</svg>
