<svg width="23" height="24" viewBox="0 0 23 24" fill="none" xmlns="http://www.w3.org/2000/svg">
<path d="M12.2188 12.7188H15.9146C16.0895 13.3963 16.5056 13.9868 17.0847 14.3795C17.6639 14.7722 18.3664 14.9403 19.0606 14.8521C19.7547 14.7639 20.3929 14.4256 20.8555 13.9005C21.3181 13.3755 21.5733 12.6998 21.5733 12C21.5733 11.3003 21.3181 10.6245 20.8555 10.0995C20.3929 9.57441 19.7547 9.23609 19.0606 9.14792C18.3664 9.05975 17.6639 9.22778 17.0847 9.62051C16.5056 10.0132 16.0895 10.6037 15.9146 11.2813H12.2188V5.53126H15.9146C16.0895 6.20879 16.5056 6.79927 17.0847 7.192C17.6639 7.58474 18.3664 7.75276 19.0606 7.66459C19.7547 7.57642 20.3929 7.2381 20.8555 6.71305C21.3181 6.188 21.5733 5.51226 21.5733 4.81251C21.5733 4.11275 21.3181 3.43702 20.8555 2.91196C20.3929 2.38691 19.7547 2.04859 19.0606 1.96042C18.3664 1.87225 17.6639 2.04028 17.0847 2.43301C16.5056 2.82575 16.0895 3.41622 15.9146 4.09376H12.2188C11.8376 4.09414 11.4722 4.24571 11.2027 4.51521C10.9332 4.78471 10.7817 5.15013 10.7813 5.53126V11.2813H7.08546C6.91053 10.6037 6.49449 10.0132 5.91533 9.62051C5.33618 9.22778 4.63367 9.05975 3.9395 9.14792C3.24532 9.23609 2.60712 9.57441 2.14455 10.0995C1.68197 10.6245 1.42676 11.3003 1.42676 12C1.42676 12.6998 1.68197 13.3755 2.14455 13.9005C2.60712 14.4256 3.24532 14.7639 3.9395 14.8521C4.63367 14.9403 5.33618 14.7722 5.91533 14.3795C6.49449 13.9868 6.91053 13.3963 7.08546 12.7188H10.7813V18.4688C10.7817 18.8499 10.9332 19.2153 11.2027 19.4848C11.4722 19.7543 11.8376 19.9059 12.2188 19.9063H15.9146C16.0895 20.5838 16.5056 21.1743 17.0847 21.567C17.6639 21.9597 18.3664 22.1278 19.0606 22.0396C19.7547 21.9514 20.3929 21.6131 20.8555 21.088C21.3181 20.563 21.5733 19.8873 21.5733 19.1875C21.5733 18.4878 21.3181 17.812 20.8555 17.287C20.3929 16.7619 19.7547 16.4236 19.0606 16.3354C18.3664 16.2472 17.6639 16.4153 17.0847 16.808C16.5056 17.2007 16.0895 17.7912 15.9146 18.4688H12.2188V12.7188ZM18.6875 10.5625C18.9718 10.5625 19.2498 10.6468 19.4862 10.8048C19.7226 10.9627 19.9068 11.1872 20.0156 11.4499C20.1244 11.7126 20.1529 12.0016 20.0974 12.2804C20.0419 12.5593 19.905 12.8154 19.704 13.0165C19.503 13.2175 19.2468 13.3544 18.968 13.4099C18.6891 13.4654 18.4001 13.4369 18.1374 13.3281C17.8748 13.2193 17.6502 13.035 17.4923 12.7986C17.3343 12.5622 17.25 12.2843 17.25 12C17.2504 11.6189 17.402 11.2535 17.6715 10.984C17.941 10.7145 18.3064 10.5629 18.6875 10.5625ZM18.6875 3.37501C18.9718 3.37501 19.2498 3.45931 19.4862 3.61727C19.7226 3.77522 19.9068 3.99973 20.0156 4.2624C20.1244 4.52507 20.1529 4.8141 20.0974 5.09295C20.0419 5.3718 19.905 5.62793 19.704 5.82897C19.503 6.03001 19.2468 6.16692 18.968 6.22239C18.6891 6.27785 18.4001 6.24938 18.1374 6.14058C17.8748 6.03178 17.6502 5.84753 17.4923 5.61114C17.3343 5.37474 17.25 5.09682 17.25 4.81251C17.2504 4.43138 17.402 4.06596 17.6715 3.79646C17.941 3.52696 18.3064 3.37539 18.6875 3.37501ZM4.31253 13.4375C4.02822 13.4375 3.75029 13.3532 3.5139 13.1952C3.2775 13.0373 3.09325 12.8128 2.98445 12.5501C2.87565 12.2874 2.84718 11.9984 2.90265 11.7196C2.95811 11.4407 3.09502 11.1846 3.29606 10.9835C3.4971 10.7825 3.75324 10.6456 4.03208 10.5901C4.31093 10.5347 4.59997 10.5631 4.86263 10.6719C5.1253 10.7807 5.34981 10.965 5.50776 11.2014C5.66572 11.4378 5.75003 11.7157 5.75003 12C5.74965 12.3811 5.59807 12.7466 5.32857 13.0161C5.05907 13.2856 4.69366 13.4371 4.31253 13.4375ZM18.6875 17.75C18.9718 17.75 19.2498 17.8343 19.4862 17.9923C19.7226 18.1502 19.9068 18.3747 20.0156 18.6374C20.1244 18.9001 20.1529 19.1891 20.0974 19.4679C20.0419 19.7468 19.905 20.0029 19.704 20.204C19.503 20.405 19.2468 20.5419 18.968 20.5974C18.6891 20.6529 18.4001 20.6244 18.1374 20.5156C17.8748 20.4068 17.6502 20.2225 17.4923 19.9861C17.3343 19.7497 17.25 19.4718 17.25 19.1875C17.2504 18.8064 17.402 18.441 17.6715 18.1715C17.941 17.902 18.3064 17.7504 18.6875 17.75Z" fill="#01070C"/>
</svg>
