<svg width="23" height="24" viewBox="0 0 23 24" fill="none" xmlns="http://www.w3.org/2000/svg">
<path fill-rule="evenodd" clip-rule="evenodd" d="M19.9 2.5H3.1C1.945 2.5 1 3.45 1 4.61111V19.3889C1 20.55 1.945 21.5 3.1 21.5H19.9C21.055 21.5 22 20.55 22 19.3889V4.61111C22 3.45 21.055 2.5 19.9 2.5ZM19.9 19.3889H3.1V4.61111H19.9V19.3889Z" fill="black"/>
<path fill-rule="evenodd" clip-rule="evenodd" d="M19 10.262L17.5219 8.7L14.2221 12.187L12.7543 10.625L11.2866 12.176L14.2221 15.3L19 10.262ZM4 6.5H9.20472V8.7H4V6.5ZM4 10.9H9.20472V13.1H4V10.9ZM4 15.3H9.20472V17.5H4V15.3Z" fill="black"/>
</svg>
