<svg width="23" height="24" viewBox="0 0 23 24" fill="none" xmlns="http://www.w3.org/2000/svg">
<path d="M12.7777 9.44531H10.2221C10.0527 9.44531 9.89019 9.51262 9.77038 9.63244C9.65056 9.75225 9.58325 9.91476 9.58325 10.0842V13.9175C9.58325 14.087 9.65056 14.2495 9.77038 14.3693C9.89019 14.4891 10.0527 14.5564 10.2221 14.5564H12.7777C12.9471 14.5564 13.1096 14.4891 13.2295 14.3693C13.3493 14.2495 13.4166 14.087 13.4166 13.9175V10.0842C13.4166 9.91476 13.3493 9.75225 13.2295 9.63244C13.1096 9.51262 12.9471 9.44531 12.7777 9.44531ZM12.5221 13.662H10.4777V10.3398H12.5221V13.662Z" fill="#01070C"/>
<path d="M21.537 8.40858L18.924 5.79552C18.805 5.67749 18.6443 5.61095 18.4767 5.61024H15.2823V4.36441C15.2909 4.02871 15.1671 3.70309 14.9375 3.45799C14.708 3.21289 14.3912 3.06801 14.0556 3.05469H8.84229C8.67831 3.06114 8.5173 3.10043 8.36878 3.17023C8.22026 3.24003 8.08725 3.33891 7.97764 3.46104C7.86802 3.58316 7.78403 3.72604 7.73062 3.88121C7.67722 4.03638 7.65549 4.20069 7.66673 4.36441V5.61024H4.5234C4.43932 5.60976 4.35597 5.62587 4.27812 5.65767C4.20028 5.68946 4.12948 5.73631 4.06979 5.79552L1.46312 8.40858C1.40391 8.46827 1.35706 8.53907 1.32527 8.61691C1.29347 8.69475 1.27736 8.77811 1.27784 8.86219V18.388C1.27784 18.7269 1.41247 19.0519 1.6521 19.2915C1.89172 19.5312 2.21673 19.6658 2.55562 19.6658H20.4445C20.7834 19.6658 21.1084 19.5312 21.348 19.2915C21.5877 19.0519 21.7223 18.7269 21.7223 18.388V8.8558C21.7216 8.68819 21.655 8.52758 21.537 8.40858ZM8.94451 4.33247H14.0556V5.61024H8.94451V4.33247ZM20.4445 11.3602H14.0556V12.5933H20.4445V18.388H2.55562V12.5933H8.94451V11.3602H2.55562V9.12413L4.79173 6.88802H18.2084L20.4445 9.12413V11.3602Z" fill="#01070C"/>
</svg>
