<svg width="23" height="24" viewBox="0 0 23 24" fill="none" xmlns="http://www.w3.org/2000/svg">
<g clip-path="url(#clip0_237_8030)">
<path d="M4.03571 1.5C3.49581 1.5 2.97802 1.71448 2.59625 2.09625C2.21448 2.47802 2 2.99581 2 3.53571V21.1786C2 21.7185 2.21448 22.2363 2.59625 22.618C2.97802 22.9998 3.49581 23.2143 4.03571 23.2143H13.5357C14.0756 23.2143 14.5934 22.9998 14.9752 22.618C15.357 22.2363 15.5714 21.7185 15.5714 21.1786V19.1429C15.5714 18.9629 15.4999 18.7903 15.3727 18.663C15.2454 18.5358 15.0728 18.4643 14.8929 18.4643C14.3324 18.4643 13.9741 18.3259 13.7311 18.144C13.4828 17.9581 13.2941 17.6799 13.1557 17.2985C12.8653 16.5005 12.8571 15.4433 12.8571 14.3929C12.8571 14.3036 12.8395 14.2152 12.8053 14.1328C12.771 14.0503 12.7209 13.9754 12.6576 13.9124L12.2695 13.5229L10.6233 11.8767C9.9895 11.2429 9.80357 10.8181 9.76829 10.5806C9.74114 10.3906 9.79814 10.2631 9.93386 10.1328C10.2243 9.85457 10.4319 9.66593 10.6667 9.60893C10.8065 9.57364 11.1254 9.54921 11.6981 10.1219L15.7696 14.1934C15.8968 14.3208 16.0695 14.3924 16.2495 14.3926C16.3387 14.3926 16.427 14.3751 16.5094 14.3411C16.5918 14.307 16.6667 14.257 16.7297 14.194C16.7928 14.131 16.8429 14.0562 16.8771 13.9739C16.9113 13.8915 16.9289 13.8032 16.9289 13.7141C16.929 13.6249 16.9115 13.5366 16.8774 13.4542C16.8434 13.3718 16.7934 13.2969 16.7304 13.2339L15.5714 12.0762V7.88807L19.0457 11.3624C19.235 11.5514 19.3851 11.7758 19.4876 12.0229C19.59 12.27 19.6428 12.5348 19.6429 12.8023V22.5357C19.6429 22.7157 19.7143 22.8883 19.8416 23.0155C19.9689 23.1428 20.1415 23.2143 20.3214 23.2143C20.5014 23.2143 20.674 23.1428 20.8013 23.0155C20.9285 22.8883 21 22.7157 21 22.5357V12.8023C20.9998 11.9029 20.6425 11.0403 20.0066 10.4042L15.5714 5.96907V3.53571C15.5714 2.99581 15.357 2.47802 14.9752 2.09625C14.5934 1.71448 14.0756 1.5 13.5357 1.5H4.03571ZM14.2143 6.25V10.7191L12.659 9.16243C11.8746 8.378 11.0929 8.10793 10.3451 8.28979C10.1982 8.32604 10.0557 8.37838 9.92029 8.44586C9.31363 8.27012 8.67442 8.23789 8.05317 8.3517C7.43191 8.46551 6.84564 8.72225 6.34068 9.10162C5.83573 9.481 5.42592 9.97262 5.14365 10.5376C4.86138 11.1026 4.71439 11.7255 4.71429 12.3571C4.71423 13.1442 4.94231 13.9144 5.37091 14.5746C5.79952 15.2347 6.41027 15.7564 7.12926 16.0767C7.84824 16.3969 8.64463 16.5018 9.42202 16.3788C10.1994 16.2558 10.9245 15.9101 11.5095 15.3836C11.5326 16.168 11.6113 17.0257 11.88 17.7626C12.0809 18.315 12.4011 18.8429 12.9169 19.2284L12.925 19.2365C12.5117 19.3665 12.1507 19.6249 11.8944 19.9742C11.6381 20.3234 11.5 20.7454 11.5 21.1786V21.8571H6.07143V21.1786C6.07143 20.6387 5.85695 20.1209 5.47518 19.7391C5.09341 19.3573 4.57562 19.1429 4.03571 19.1429H3.35714V5.57143H4.03571C4.57562 5.57143 5.09341 5.35695 5.47518 4.97518C5.85695 4.59341 6.07143 4.07562 6.07143 3.53571V2.85714H11.5V3.53571C11.5 4.07562 11.7145 4.59341 12.0962 4.97518C12.478 5.35695 12.9958 5.57143 13.5357 5.57143H14.2143V6.25ZM14.2143 21.1786V21.1908C14.2111 21.3686 14.1382 21.5381 14.0113 21.6627C13.8844 21.7874 13.7136 21.8572 13.5357 21.8571H12.8571V21.1786C12.8571 20.9986 12.9286 20.826 13.0559 20.6987C13.1831 20.5715 13.3557 20.5 13.5357 20.5H14.2143V21.1786ZM6.07143 12.3571C6.07144 11.6669 6.33443 11.0025 6.8069 10.4993C7.27937 9.99609 7.92582 9.69177 8.61471 9.64828C8.44643 9.96043 8.36093 10.3404 8.42607 10.7788C8.52243 11.4329 8.93907 12.1129 9.66243 12.8362L10.8934 14.0671C10.54 14.5026 10.0604 14.8179 9.52055 14.9697C8.98069 15.1216 8.40705 15.1024 7.8785 14.915C7.34996 14.7276 6.89244 14.381 6.56885 13.923C6.24526 13.465 6.07149 12.9179 6.07143 12.3571ZM4.71429 2.85714V3.53571C4.71429 3.71568 4.64279 3.88828 4.51554 4.01554C4.38828 4.14279 4.21568 4.21429 4.03571 4.21429H3.35714V3.53571C3.35714 3.35575 3.42864 3.18315 3.55589 3.05589C3.68315 2.92864 3.85575 2.85714 4.03571 2.85714H4.71429ZM3.35714 20.5H4.03571C4.21568 20.5 4.38828 20.5715 4.51554 20.6987C4.64279 20.826 4.71429 20.9986 4.71429 21.1786V21.8571H4.03571C3.85575 21.8571 3.68315 21.7857 3.55589 21.6584C3.42864 21.5311 3.35714 21.3585 3.35714 21.1786V20.5ZM14.2143 4.21429H13.5357C13.3557 4.21429 13.1831 4.14279 13.0559 4.01554C12.9286 3.88828 12.8571 3.71568 12.8571 3.53571V2.85714H13.5357C13.7157 2.85714 13.8883 2.92864 14.0155 3.05589C14.1428 3.18315 14.2143 3.35575 14.2143 3.53571V4.21429Z" fill="#01070C"/>
</g>
<defs>
<clipPath id="clip0_237_8030">
<rect width="23" height="23" fill="white" transform="translate(0 0.5)"/>
</clipPath>
</defs>
</svg>
