<svg width="23" height="24" viewBox="0 0 23 24" fill="none" xmlns="http://www.w3.org/2000/svg">
<path d="M18.7901 5.91362C17.4355 4.28975 15.5777 3.16442 13.5111 2.71599C11.4445 2.26757 9.28735 2.5217 7.38154 3.43811C5.47574 4.35452 3.9303 5.88078 2.99016 7.775C2.05003 9.66921 1.76898 11.823 2.19157 13.8951M20.744 9.81506C21.2427 11.9193 21.0084 14.1308 20.0797 16.0838C19.151 18.0367 17.5836 19.6143 15.6366 20.5556C13.6897 21.4969 11.4798 21.7455 9.37234 21.2604C7.2649 20.7753 5.38614 19.5855 4.04669 17.8877" stroke="#01070C" stroke-width="1.5" stroke-linecap="round"/>
<path d="M19.2572 3.76953V6.30211H16.7246M6.2777 17.6987H3.74512V20.2313" stroke="#01070C" stroke-width="1.5" stroke-linecap="round" stroke-linejoin="round"/>
<path d="M11.5 6.92969V17.06" stroke="#01070C" stroke-linecap="round"/>
<path d="M13.7923 9.66825C13.6403 8.99711 12.7755 8.25 11.5079 8.25C10.2416 8.25 9.26658 9.07309 9.26658 10.1114C9.26658 12.4718 13.9658 11.2587 13.9658 13.999C13.9658 14.9879 12.7755 15.8275 11.5092 15.8275C10.2429 15.8275 9.36408 15.0487 9.10449 14.2142" stroke="#01070C" stroke-width="1.5" stroke-linecap="round" stroke-linejoin="round"/>
</svg>
