<svg width="23" height="24" viewBox="0 0 23 24" fill="none" xmlns="http://www.w3.org/2000/svg">
<path fill-rule="evenodd" clip-rule="evenodd" d="M15.4531 1.9375C15.1672 1.9375 14.893 2.05109 14.6908 2.25328C14.4886 2.45546 14.375 2.72969 14.375 3.01562C14.375 3.30156 14.4886 3.57579 14.6908 3.77797C14.893 3.98016 15.1672 4.09375 15.4531 4.09375H17.8825L11.8163 10.16C11.6258 10.3644 11.5221 10.6347 11.5271 10.914C11.532 11.1933 11.6451 11.4598 11.8427 11.6573C12.0402 11.8549 12.3067 11.968 12.586 11.9729C12.8653 11.9779 13.1356 11.8742 13.34 11.6838L19.4062 5.6175V8.04688C19.4062 8.33281 19.5198 8.60704 19.722 8.80922C19.9242 9.01141 20.1984 9.125 20.4844 9.125C20.7703 9.125 21.0445 9.01141 21.2467 8.80922C21.4489 8.60704 21.5625 8.33281 21.5625 8.04688V1.9375H15.4531ZM3.59375 6.25V19.1875C3.59375 19.3781 3.66948 19.5609 3.80427 19.6957C3.93906 19.8305 4.12188 19.9062 4.3125 19.9062H17.25C17.4406 19.9062 17.6234 19.8305 17.7582 19.6957C17.893 19.5609 17.9688 19.3781 17.9688 19.1875V13.0781C17.9688 12.7922 18.0823 12.518 18.2845 12.3158C18.4867 12.1136 18.7609 12 19.0469 12C19.3328 12 19.607 12.1136 19.8092 12.3158C20.0114 12.518 20.125 12.7922 20.125 13.0781V19.1875C20.125 19.95 19.8221 20.6813 19.2829 21.2204C18.7438 21.7596 18.0125 22.0625 17.25 22.0625H4.3125C3.55 22.0625 2.81874 21.7596 2.27957 21.2204C1.7404 20.6813 1.4375 19.95 1.4375 19.1875V6.25C1.4375 5.4875 1.7404 4.75623 2.27957 4.21707C2.81874 3.6779 3.55 3.375 4.3125 3.375H10.4219C10.7078 3.375 10.982 3.48859 11.1842 3.69078C11.3864 3.89296 11.5 4.16719 11.5 4.45312C11.5 4.73906 11.3864 5.01329 11.1842 5.21547C10.982 5.41766 10.7078 5.53125 10.4219 5.53125H4.3125C4.12188 5.53125 3.93906 5.60698 3.80427 5.74177C3.66948 5.87656 3.59375 6.05938 3.59375 6.25Z" fill="black"/>
</svg>
