<svg width="23" height="24" viewBox="0 0 23 24" fill="none" xmlns="http://www.w3.org/2000/svg">
<g clip-path="url(#clip0_622_95204)">
<path fill-rule="evenodd" clip-rule="evenodd" d="M3.83333 2.03333C3.22334 2.03333 2.63832 2.27565 2.20699 2.70699C1.77565 3.13832 1.53333 3.72334 1.53333 4.33333V8.16667H0V4.33333C0 3.31667 0.403868 2.34165 1.12276 1.62276C1.84165 0.903868 2.81667 0.5 3.83333 0.5L7.66667 0.5V2.03333H3.83333ZM19.1667 2.03333H15.3333V0.5H19.1667C20.1833 0.5 21.1584 0.903868 21.8772 1.62276C22.5961 2.34165 23 3.31667 23 4.33333V8.16667H21.4667V4.33333C21.4667 3.72334 21.2243 3.13832 20.793 2.70699C20.3617 2.27565 19.7767 2.03333 19.1667 2.03333ZM7.66667 9.7H6.13333V8.16667H7.66667V9.7ZM16.8667 9.7H15.3333V8.16667H16.8667V9.7ZM7.51333 13.84C7.97752 14.4589 8.57942 14.9612 9.27139 15.3072C9.96335 15.6532 10.7264 15.8333 11.5 15.8333C12.2736 15.8333 13.0367 15.6532 13.7286 15.3072C14.4206 14.9612 15.0225 14.4589 15.4867 13.84L16.7133 14.76C14.1067 18.2361 8.89333 18.2361 6.28667 14.76L7.51333 13.84ZM0 19.6667V15.8333H1.53333V19.6667C1.53333 20.2767 1.77565 20.8617 2.20699 21.293C2.63832 21.7243 3.22334 21.9667 3.83333 21.9667H7.66667V23.5H3.83333C2.81667 23.5 1.84165 23.0961 1.12276 22.3772C0.403868 21.6584 0 20.6833 0 19.6667ZM23 15.8333V19.6667C23 20.6833 22.5961 21.6584 21.8772 22.3772C21.1584 23.0961 20.1833 23.5 19.1667 23.5H15.3333V21.9667H19.1667C19.7767 21.9667 20.3617 21.7243 20.793 21.293C21.2243 20.8617 21.4667 20.2767 21.4667 19.6667V15.8333H23Z" fill="black"/>
</g>
<defs>
<clipPath id="clip0_622_95204">
<rect width="23" height="23" fill="white" transform="translate(0 0.5)"/>
</clipPath>
</defs>
</svg>
