<svg width="42" height="44" viewBox="0 0 42 44" fill="none" xmlns="http://www.w3.org/2000/svg">
<path d="M33 28.668V18.0013C33 16.5285 31.8061 15.3346 30.3333 15.3346H27C26.2636 15.3346 25.6667 14.7377 25.6667 14.0013C25.6667 13.2649 25.0697 12.668 24.3333 12.668H17.6667C16.9303 12.668 16.3333 13.2649 16.3333 14.0013C16.3333 14.7377 15.7364 15.3346 15 15.3346H11.6667C10.1939 15.3346 9 16.5285 9 18.0013V28.668C9 30.1407 10.1939 31.3346 11.6667 31.3346H30.3333C31.8061 31.3346 33 30.1407 33 28.668Z" stroke="#272727" stroke-width="1.5"/>
<path d="M25 23.3346C25 25.5438 23.2091 27.3346 21 27.3346C18.7909 27.3346 17 25.5438 17 23.3346C17 21.1255 18.7909 19.3346 21 19.3346C23.2091 19.3346 25 21.1255 25 23.3346Z" stroke="#272727" stroke-width="1.5"/>
</svg>
