<svg width="18" height="18" viewBox="0 0 18 18" fill="none" xmlns="http://www.w3.org/2000/svg">
<path d="M16.2929 17.7071C16.6834 18.0976 17.3166 18.0976 17.7071 17.7071C18.0976 17.3166 18.0976 16.6834 17.7071 16.2929L16.2929 17.7071ZM14.1176 8.05882C14.1176 11.405 11.405 14.1176 8.05882 14.1176V16.1176C12.5096 16.1176 16.1176 12.5096 16.1176 8.05882H14.1176ZM8.05882 14.1176C4.71263 14.1176 2 11.405 2 8.05882H0C0 12.5096 3.60806 16.1176 8.05882 16.1176V14.1176ZM2 8.05882C2 4.71263 4.71263 2 8.05882 2V0C3.60806 0 0 3.60806 0 8.05882H2ZM8.05882 2C11.405 2 14.1176 4.71263 14.1176 8.05882H16.1176C16.1176 3.60806 12.5096 0 8.05882 0V2ZM17.7071 16.2929L13.7659 12.3516L12.3516 13.7659L16.2929 17.7071L17.7071 16.2929Z" fill="#C9C9C9"/>
</svg>
