<svg width="23" height="24" viewBox="0 0 23 24" fill="none" xmlns="http://www.w3.org/2000/svg">
<g clip-path="url(#clip0_869_177877)">
<path d="M2.3 18.5531C1.6675 18.5531 1.12623 18.3281 0.6762 17.8781C0.226166 17.428 0.000766667 16.8864 0 16.2531V4.75312C0 4.12062 0.2254 3.57936 0.6762 3.12932C1.127 2.67929 1.66827 2.45389 2.3 2.45312H20.7C21.3325 2.45312 21.8741 2.67852 22.3249 3.12932C22.7758 3.58012 23.0008 4.12139 23 4.75312V12.2569C22.6742 11.9502 22.3196 11.6869 21.9363 11.4668C21.5529 11.2468 21.616 11.0597 21.1752 10.9056V4.12893H1.83569V16.8143H11.5287C11.4904 17.006 11.5529 16.6319 11.5437 16.8143C11.5345 16.9968 11.5295 17.1931 11.5287 17.4031C11.5287 17.614 11.5337 17.8106 11.5437 17.9931C11.5537 18.1755 11.5774 18.3622 11.615 18.5531H2.3ZM6.9 12.8031V15.1031H11.9025C12.0558 14.6623 12.2475 14.2502 12.4775 13.8669C12.7075 13.4835 12.9758 13.129 13.2825 12.8031H6.9ZM3.45 9.35312V11.6531H5.75V9.35312H3.45ZM6.9 9.35312V11.6531H9.2V9.35312H6.9ZM10.35 9.35312V11.6531H12.65V9.35312H10.35ZM13.8 9.35312V11.6531H14.605C14.835 11.4998 15.0746 11.3606 15.3237 11.2357C15.5729 11.1107 15.8317 11.0007 16.1 10.9056V9.35312H13.8ZM17.25 9.35312V10.6181C17.4417 10.5798 17.6287 10.551 17.8112 10.5319C17.9937 10.5127 18.1899 10.5031 18.4 10.5031C18.6108 10.5031 18.8075 10.5127 18.99 10.5319C19.1724 10.551 19.3591 10.5798 19.55 10.6181V9.35312H17.25ZM3.45 5.90312V8.20312H5.75V5.90312H3.45ZM6.9 5.90312V8.20312H9.2V5.90312H6.9ZM10.35 5.90312V8.20312H12.65V5.90312H10.35ZM13.8 5.90312V8.20312H16.1V5.90312H13.8ZM17.25 5.90312V8.20312H19.55V5.90312H17.25ZM18.4 22.0031L17.25 20.7311L19.55 18.5531H13.8V16.8143H19.55L17 13.9531L18.4 12.8031L22.5 17.8L18.4 22.0031Z" fill="black"/>
</g>
<defs>
<clipPath id="clip0_869_177877">
<rect width="23" height="23" fill="white" transform="translate(0 0.5)"/>
</clipPath>
</defs>
</svg>
