<svg width="23" height="24" viewBox="0 0 23 24" fill="none" xmlns="http://www.w3.org/2000/svg">
<path d="M7.05627 12.0005L11.1196 16.0695C11.2097 16.159 11.2589 16.2682 11.2672 16.3973C11.2755 16.5263 11.2266 16.6433 11.1206 16.748C11.0183 16.8503 10.9053 16.9014 10.7813 16.9014C10.6574 16.9014 10.5443 16.8503 10.4421 16.748L6.23689 12.5419C6.1532 12.4589 6.09442 12.3736 6.06056 12.286C6.0267 12.1992 6.00977 12.104 6.00977 12.0005C6.00977 11.897 6.0267 11.8018 6.06056 11.7149C6.09442 11.6273 6.1532 11.5421 6.23689 11.459L10.4421 7.25287C10.5315 7.16343 10.6404 7.11455 10.7688 7.10625C10.8973 7.09858 11.0145 7.14746 11.1206 7.25287C11.2228 7.3551 11.2739 7.46818 11.2739 7.59212C11.2739 7.71607 11.2228 7.82915 11.1206 7.93137L7.05627 12.0005ZM12.9021 12.0005L16.9654 16.0695C17.0555 16.159 17.1047 16.2682 17.113 16.3973C17.1213 16.5263 17.0724 16.6433 16.9664 16.748C16.8642 16.8503 16.7511 16.9014 16.6271 16.9014C16.5032 16.9014 16.3901 16.8503 16.2879 16.748L12.0827 12.5419C11.999 12.4589 11.9403 12.3736 11.9064 12.286C11.8725 12.1992 11.8556 12.104 11.8556 12.0005C11.8556 11.897 11.8725 11.8018 11.9064 11.7149C11.9403 11.6273 11.999 11.5421 12.0827 11.459L16.2879 7.25287C16.3773 7.16343 16.4866 7.11455 16.6156 7.10625C16.7434 7.09858 16.8603 7.14746 16.9664 7.25287C17.0686 7.3551 17.1197 7.46818 17.1197 7.59212C17.1197 7.71607 17.0686 7.82915 16.9664 7.93137L12.9021 12.0005Z" fill="#01070C"/>
</svg>
