<svg width="23" height="24" viewBox="0 0 23 24" fill="none" xmlns="http://www.w3.org/2000/svg">
<path d="M11.5 15.4141C12.1752 15.4141 12.8353 15.2138 13.3968 14.8387C13.9582 14.4635 14.3958 13.9303 14.6542 13.3065C14.9126 12.6827 14.9802 11.9962 14.8485 11.3339C14.7167 10.6717 14.3916 10.0634 13.9141 9.58589C13.4366 9.10843 12.8283 8.78327 12.1661 8.65154C11.5038 8.51981 10.8173 8.58742 10.1935 8.84582C9.56966 9.10422 9.03645 9.54181 8.66131 10.1032C8.28617 10.6647 8.08594 11.3248 8.08594 12C8.08594 12.9055 8.44563 13.7738 9.08589 14.4141C9.72615 15.0544 10.5945 15.4141 11.5 15.4141ZM11.5 9.66406C11.962 9.66406 12.4136 9.80106 12.7978 10.0577C13.1819 10.3144 13.4813 10.6792 13.6581 11.1061C13.8349 11.5329 13.8812 12.0026 13.7911 12.4557C13.7009 12.9088 13.4784 13.3251 13.1518 13.6518C12.8251 13.9784 12.4088 14.2009 11.9557 14.2911C11.5026 14.3812 11.0329 14.3349 10.6061 14.1581C10.1792 13.9813 9.81441 13.6819 9.55774 13.2978C9.30106 12.9136 9.16406 12.462 9.16406 12C9.16406 11.3805 9.41017 10.7863 9.84824 10.3482C10.2863 9.91017 10.8805 9.66406 11.5 9.66406ZM21.5625 5.71094H1.4375C1.29453 5.71094 1.15742 5.76773 1.05633 5.86883C0.955231 5.96992 0.898438 6.10703 0.898438 6.25V17.75C0.898438 17.893 0.955231 18.0301 1.05633 18.1312C1.15742 18.2323 1.29453 18.2891 1.4375 18.2891H21.5625C21.7055 18.2891 21.8426 18.2323 21.9437 18.1312C22.0448 18.0301 22.1016 17.893 22.1016 17.75V6.25C22.1016 6.10703 22.0448 5.96992 21.9437 5.86883C21.8426 5.76773 21.7055 5.71094 21.5625 5.71094ZM1.97656 10.2768C2.81358 10.0541 3.57693 9.61432 4.18937 9.00187C4.80182 8.38943 5.24163 7.62608 5.4643 6.78906H17.5357C17.7584 7.62608 18.1982 8.38943 18.8106 9.00187C19.4231 9.61432 20.1864 10.0541 21.0234 10.2768V13.7232C20.1864 13.9459 19.4231 14.3857 18.8106 14.9981C18.1982 15.6106 17.7584 16.3739 17.5357 17.2109H5.4643C5.24163 16.3739 4.80182 15.6106 4.18937 14.9981C3.57693 14.3857 2.81358 13.9459 1.97656 13.7232V10.2768ZM21.0234 9.15105C20.4775 8.96032 19.9815 8.64888 19.5726 8.23993C19.1636 7.83098 18.8522 7.33505 18.6614 6.78906H21.0234V9.15105ZM4.33855 6.78906C4.14782 7.33505 3.83638 7.83098 3.42743 8.23993C3.01848 8.64888 2.52255 8.96032 1.97656 9.15105V6.78906H4.33855ZM1.97656 14.8489C2.52255 15.0397 3.01848 15.3511 3.42743 15.7601C3.83638 16.169 4.14782 16.665 4.33855 17.2109H1.97656V14.8489ZM18.6614 17.2109C18.8522 16.665 19.1636 16.169 19.5726 15.7601C19.9815 15.3511 20.4775 15.0397 21.0234 14.8489V17.2109H18.6614Z" fill="#01070C"/>
</svg>
