<svg width="23" height="24" viewBox="0 0 23 24" fill="none" xmlns="http://www.w3.org/2000/svg">
<g clip-path="url(#clip0_237_8029)">
<path d="M23 20.625L18.6875 23.5V22.0625H11.8594L14.7344 19.1875H18.6875V17.75L23 20.625ZM0 3.375L4.3125 0.5V1.9375H11.1406L8.26562 4.8125H4.3125V6.25L0 3.375ZM14.0012 0.5L0 14.5012L8.99875 23.5L23 9.49875L14.0012 0.5ZM1.99812 14.5012L14.0012 2.49812L21.0019 9.49875L8.99875 21.5019L1.99812 14.5012Z" fill="#01070C"/>
<path d="M5.99429 14.5025L4.98804 15.5087L7.99241 18.5131L8.99866 17.5069L10.0624 18.4988L14.0012 14.5025C13.3345 15.1498 12.4399 15.5088 11.5107 15.5019C10.5816 15.495 9.69238 15.1229 9.03533 14.4658C8.37829 13.8088 8.00613 12.9196 7.99927 11.9904C7.9924 11.0613 8.35139 10.1667 8.99866 9.5L5.00241 13.4387L5.99429 14.5025Z" fill="#01070C"/>
<path d="M17.9975 8.50828L14.9932 5.50391L13.9869 6.51016L12.9375 5.50391L8.99878 9.50016C9.66546 8.85289 10.56 8.4939 11.4892 8.50076C12.4184 8.50762 13.3076 8.87978 13.9646 9.53683C14.6217 10.1939 14.9938 11.083 15.0007 12.0122C15.0075 12.9414 14.6485 13.836 14.0013 14.5027L17.9975 10.5639L16.9913 9.55766L17.9975 8.50828Z" fill="#01070C"/>
</g>
<defs>
<clipPath id="clip0_237_8029">
<rect width="23" height="23" fill="white" transform="translate(0 0.5)"/>
</clipPath>
</defs>
</svg>
