<svg width="23" height="24" viewBox="0 0 23 24" fill="none" xmlns="http://www.w3.org/2000/svg">
<path d="M3.35426 8.16817C3.35445 7.25959 3.5895 6.36649 4.03661 5.57553C4.48372 4.78457 5.1277 4.12262 5.90605 3.65391C6.68441 3.1852 7.5707 2.92566 8.47894 2.90046C9.38717 2.87527 10.2865 3.08528 11.0896 3.51012C11.8928 3.93495 12.5725 4.56018 13.0627 5.32514C13.553 6.0901 13.8372 6.9688 13.8878 7.87597C13.9383 8.78314 13.7535 9.68798 13.3513 10.5027C12.9491 11.3174 12.3431 12.0143 11.5921 12.5257C13.2093 13.1189 14.612 14.1824 15.6196 15.5795C16.6273 16.9765 17.1938 18.6431 17.2463 20.3649C17.244 20.5505 17.1702 20.7281 17.0401 20.8605C16.91 20.993 16.7337 21.0701 16.5482 21.0756C16.3626 21.0812 16.1821 21.0148 16.0443 20.8904C15.9065 20.766 15.8221 20.5932 15.8088 20.408C15.7517 18.5407 14.9698 16.7689 13.6287 15.4682C12.2877 14.1675 10.4928 13.4401 8.62461 13.4401C6.75639 13.4401 4.96157 14.1675 3.62051 15.4682C2.27945 16.7689 1.49754 18.5407 1.44047 20.408C1.43087 20.5957 1.34816 20.7721 1.21005 20.8996C1.07193 21.027 0.889406 21.0953 0.701568 21.0897C0.51373 21.0842 0.335522 21.0054 0.205121 20.8701C0.0747195 20.7348 0.00249759 20.5538 0.00392707 20.3658C0.0562055 18.6439 0.622634 16.9771 1.6303 15.5798C2.63797 14.1826 4.04075 13.1189 5.65809 12.5257C4.94781 12.0424 4.36654 11.3926 3.96498 10.6331C3.56342 9.87355 3.35375 9.02732 3.35426 8.16817ZM8.62509 4.33484C7.60843 4.33484 6.63341 4.73871 5.91452 5.4576C5.19563 6.17649 4.79176 7.15151 4.79176 8.16817C4.79176 9.18484 5.19563 10.1599 5.91452 10.8787C6.63341 11.5976 7.60843 12.0015 8.62509 12.0015C9.64176 12.0015 10.6168 11.5976 11.3357 10.8787C12.0546 10.1599 12.4584 9.18484 12.4584 8.16817C12.4584 7.15151 12.0546 6.17649 11.3357 5.4576C10.6168 4.73871 9.64176 4.33484 8.62509 4.33484ZM16.5697 8.16817C16.4278 8.16817 16.2898 8.17776 16.1538 8.19692C16.0588 8.21393 15.9613 8.21164 15.8672 8.19016C15.7731 8.16869 15.6843 8.12849 15.606 8.07194C15.5278 8.0154 15.4618 7.94368 15.4119 7.86106C15.362 7.77845 15.3292 7.68662 15.3156 7.59107C15.3019 7.49552 15.3076 7.3982 15.3324 7.30491C15.3572 7.21162 15.4005 7.12428 15.4598 7.0481C15.519 6.97191 15.593 6.90845 15.6774 6.86149C15.7617 6.81452 15.8546 6.78503 15.9506 6.77476C16.9037 6.63695 17.8756 6.81999 18.7133 7.29506C19.5511 7.77013 20.207 8.51026 20.578 9.39899C20.949 10.2877 21.0139 11.2746 20.7626 12.2042C20.5113 13.1339 19.958 13.9536 19.1898 14.5344C20.319 15.04 21.2779 15.8617 21.9506 16.9002C22.6233 17.9386 22.9811 19.1496 22.9809 20.3869C22.9809 20.5775 22.9052 20.7604 22.7704 20.8952C22.6356 21.0299 22.4528 21.1057 22.2622 21.1057C22.0716 21.1057 21.8887 21.0299 21.7539 20.8952C21.6192 20.7604 21.5434 20.5775 21.5434 20.3869C21.5433 19.3176 21.1988 18.2767 20.5608 17.4185C19.9228 16.5603 19.0254 15.9304 18.0014 15.6221L17.4897 15.4688V13.8626L17.8826 13.6623C18.465 13.3673 18.931 12.8846 19.2054 12.2921C19.4797 11.6997 19.5464 11.032 19.3947 10.397C19.2429 9.76201 18.8816 9.19667 18.369 8.79226C17.8565 8.38786 17.2226 8.168 16.5697 8.16817Z" fill="#01070C"/>
</svg>
