<svg width="23" height="24" viewBox="0 0 23 24" fill="none" xmlns="http://www.w3.org/2000/svg">
<path d="M13.4924 1.9375C13.6446 1.9375 13.7929 1.98581 13.9158 2.07545C14.0388 2.16509 14.1301 2.29144 14.1767 2.43631L14.9673 4.893C15.2994 5.05544 15.6171 5.238 15.9204 5.44356L18.4446 4.90019C18.5935 4.86841 18.7485 4.8847 18.8875 4.9467C19.0265 5.0087 19.1422 5.11321 19.218 5.24519L21.2104 8.69375C21.2865 8.82565 21.3187 8.9783 21.3024 9.1297C21.2861 9.2811 21.2222 9.42341 21.1198 9.53612L19.3876 11.448C19.4129 11.8146 19.4129 12.1825 19.3876 12.5491L21.1198 14.4639C21.2222 14.5766 21.2861 14.7189 21.3024 14.8703C21.3187 15.0217 21.2865 15.1744 21.2104 15.3063L19.218 18.7563C19.142 18.888 19.0262 18.9922 18.8872 19.0539C18.7483 19.1156 18.5933 19.1317 18.4446 19.0998L15.9204 18.5564C15.6185 18.7606 15.2994 18.9446 14.9688 19.107L14.1767 21.5637C14.1301 21.7086 14.0388 21.8349 13.9158 21.9246C13.7929 22.0142 13.6446 22.0625 13.4924 22.0625H9.50769C9.35552 22.0625 9.20728 22.0142 9.08431 21.9246C8.96135 21.8349 8.87 21.7086 8.82344 21.5637L8.03425 19.1084C7.70308 18.9465 7.38365 18.7616 7.07831 18.555L4.5555 19.0998C4.40667 19.1316 4.25159 19.1153 4.11261 19.0533C3.97363 18.9913 3.85791 18.8868 3.78213 18.7548L1.78975 15.3063C1.71367 15.1744 1.68145 15.0217 1.69772 14.8703C1.714 14.7189 1.77794 14.5766 1.88031 14.4639L3.6125 12.5491C3.58741 12.1835 3.58741 11.8165 3.6125 11.4509L1.88031 9.53612C1.77794 9.42341 1.714 9.2811 1.69772 9.1297C1.68145 8.9783 1.71367 8.82565 1.78975 8.69375L3.78213 5.24375C3.85812 5.11204 3.97392 5.00782 4.11289 4.94609C4.25186 4.88435 4.40682 4.86828 4.5555 4.90019L7.07831 5.445C7.38306 5.23944 7.70219 5.054 8.03425 4.89156L8.82488 2.43631C8.87129 2.29191 8.9622 2.16589 9.08459 2.07629C9.20698 1.98669 9.35457 1.93811 9.50625 1.9375H13.491H13.4924ZM12.9663 3.375H10.0338L9.21731 5.91506L8.66675 6.18388C8.3961 6.31632 8.13482 6.46713 7.88475 6.63525L7.37588 6.98025L4.76538 6.41675L3.29913 8.95825L5.08881 10.9391L5.04569 11.5486C5.02503 11.8492 5.02503 12.1508 5.04569 12.4514L5.08881 13.0609L3.29625 15.0417L4.76394 17.5833L7.37444 17.0212L7.88331 17.3648C8.13338 17.5329 8.39466 17.6837 8.66531 17.8161L9.21588 18.0849L10.0338 20.625H12.9692L13.7886 18.0835L14.3377 17.8161C14.608 17.684 14.8689 17.5332 15.1183 17.3648L15.6257 17.0212L18.2376 17.5833L19.7039 15.0417L17.9128 13.0609L17.9559 12.4514C17.9766 12.1503 17.9766 11.8482 17.9559 11.5472L17.9128 10.9377L19.7053 8.95825L18.2376 6.41675L15.6257 6.97738L15.1183 6.63525C14.8689 6.4668 14.6081 6.31597 14.3377 6.18388L13.7886 5.9165L12.9678 3.375H12.9663ZM11.5001 7.6875C12.6438 7.6875 13.7407 8.14185 14.5495 8.9506C15.3582 9.75935 15.8126 10.8563 15.8126 12C15.8126 13.1437 15.3582 14.2406 14.5495 15.0494C13.7407 15.8581 12.6438 16.3125 11.5001 16.3125C10.3563 16.3125 9.25942 15.8581 8.45067 15.0494C7.64192 14.2406 7.18756 13.1437 7.18756 12C7.18756 10.8563 7.64192 9.75935 8.45067 8.9506C9.25942 8.14185 10.3563 7.6875 11.5001 7.6875ZM11.5001 9.125C10.7376 9.125 10.0063 9.4279 9.46713 9.96707C8.92796 10.5062 8.62506 11.2375 8.62506 12C8.62506 12.7625 8.92796 13.4938 9.46713 14.0329C10.0063 14.5721 10.7376 14.875 11.5001 14.875C12.2626 14.875 12.9938 14.5721 13.533 14.0329C14.0722 13.4938 14.3751 12.7625 14.3751 12C14.3751 11.2375 14.0722 10.5062 13.533 9.96707C12.9938 9.4279 12.2626 9.125 11.5001 9.125Z" fill="#01070C"/>
</svg>
