<svg width="23" height="24" viewBox="0 0 23 24" fill="none" xmlns="http://www.w3.org/2000/svg">
<path d="M17.2499 3.66797H5.74992C5.24159 3.66797 4.75408 3.8699 4.39463 4.22935C4.03519 4.58879 3.83325 5.0763 3.83325 5.58464V17.0846C3.83325 17.593 4.03519 18.0805 4.39463 18.4399C4.75408 18.7994 5.24159 19.0013 5.74992 19.0013H17.2499C17.7582 19.0013 18.2458 18.7994 18.6052 18.4399C18.9647 18.0805 19.1666 17.593 19.1666 17.0846V5.58464C19.1666 5.0763 18.9647 4.58879 18.6052 4.22935C18.2458 3.8699 17.7582 3.66797 17.2499 3.66797ZM13.0002 17.3359H5.00024V9.83594H13.0002V17.3359ZM18.0002 17.3359H14.3749V9.83594H18.0002V17.3359ZM18.0002 8.5H5.00024V5H18.0002V8.5Z" fill="#01070C"/>
</svg>
