<svg width="23" height="24" viewBox="0 0 23 24" fill="none" xmlns="http://www.w3.org/2000/svg">
<path d="M14.1258 9.1255L13.7942 17.7505M9.20575 17.7505L8.87417 9.1255M18.4268 6.04925C18.7546 6.09908 19.0804 6.15179 19.4062 6.20833M18.4268 6.04925L17.4033 19.3538C17.3616 19.8955 17.1169 20.4014 16.7181 20.7704C16.3194 21.1395 15.7961 21.3444 15.2528 21.3442H7.74717C7.20388 21.3444 6.68056 21.1395 6.28186 20.7704C5.88315 20.4014 5.63844 19.8955 5.59667 19.3538L4.57317 6.04925M18.4268 6.04925C17.3208 5.88204 16.209 5.75513 15.0937 5.66879M4.57317 6.04925C4.24542 6.09812 3.91958 6.15083 3.59375 6.20737M4.57317 6.04925C5.67921 5.88204 6.79097 5.75514 7.90625 5.66879M15.0937 5.66879V4.79096C15.0937 3.66012 14.2217 2.71712 13.0908 2.68167C12.0305 2.64778 10.9695 2.64778 9.90917 2.68167C8.77833 2.71712 7.90625 3.66108 7.90625 4.79096V5.66879M15.0937 5.66879C12.7015 5.48391 10.2985 5.48391 7.90625 5.66879" stroke="#01070C" stroke-width="1.5" stroke-linecap="round" stroke-linejoin="round"/>
</svg>
