<svg width="20" height="20" viewBox="0 0 20 20" fill="none" xmlns="http://www.w3.org/2000/svg">
<g clip-path="url(#clip0_237_8820)">
<path d="M19.7008 12.4183C18.3648 17.7783 12.9342 21.0366 7.58186 19.7004C2.22171 18.3643 -1.03657 12.934 0.299599 7.58171C1.63569 2.22171 7.05835 -1.03657 12.4185 0.299599C17.7708 1.62788 21.037 7.05819 19.7008 12.4183Z" fill="#D6D6D6"/>
<g clip-path="url(#clip1_237_8820)">
<path d="M10.2768 3.89062L10.198 4.15864V11.9357L10.2768 12.0144L13.8869 9.88056L10.2768 3.89062Z" fill="#343434"/>
<path d="M10.2768 3.89062L6.66675 9.88056L10.2768 12.0145V8.2397V3.89062Z" fill="#8C8C8C"/>
<path d="M10.2769 12.6992L10.2324 12.7534V15.5238L10.2769 15.6536L13.889 10.5664L10.2769 12.6992Z" fill="#3C3C3B"/>
<path d="M10.2768 15.6536V12.6992L6.66675 10.5664L10.2768 15.6536Z" fill="#8C8C8C"/>
<path d="M10.2766 12.013L13.8866 9.87914L10.2766 8.23828V12.013Z" fill="#141414"/>
<path d="M6.66675 9.87914L10.2767 12.013V8.23828L6.66675 9.87914Z" fill="#393939"/>
</g>
</g>
<defs>
<clipPath id="clip0_237_8820">
<rect width="20" height="20" fill="white"/>
</clipPath>
<clipPath id="clip1_237_8820">
<rect width="7.22222" height="11.7643" fill="white" transform="translate(6.66675 3.89062)"/>
</clipPath>
</defs>
</svg>
