<svg width="20" height="20" viewBox="0 0 20 20" fill="none" xmlns="http://www.w3.org/2000/svg">
<g clip-path="url(#clip0_237_8818)">
<path d="M19.7008 12.4183C18.3648 17.7783 12.9342 21.0366 7.58186 19.7004C2.22171 18.3643 -1.03657 12.934 0.299599 7.58171C1.63569 2.22171 7.05835 -1.03657 12.4185 0.299599C17.7708 1.62788 21.037 7.05819 19.7008 12.4183Z" fill="url(#paint0_linear_237_8818)"/>
<path d="M6.875 6.25H13.125V7.7375H6.875V6.25ZM10.9375 10.475V13.7563H9.0625V10.475H10.9375Z" fill="white"/>
<path d="M10 8.59375C7.71255 8.59375 5.86255 9.05 5.86255 9.60625C5.86255 10.1625 7.7188 10.6187 10 10.6187C12.2813 10.6187 14.1375 10.1625 14.1375 9.60625C14.1375 9.05 12.2813 8.59375 10 8.59375ZM10 10.1562C7.88755 10.1562 6.17505 9.84375 6.17505 9.45625C6.17505 9.06875 7.88755 8.75625 10 8.75625C12.1125 8.75625 13.825 9.06875 13.825 9.45625C13.825 9.84375 12.1125 10.1562 10 10.1562Z" fill="white"/>
<path d="M10 9.925C10.325 9.925 10.6375 9.91875 10.9375 9.9V7.34375H9.0625V9.9C9.3625 9.9125 9.675 9.925 10 9.925Z" fill="white"/>
</g>
<defs>
<linearGradient id="paint0_linear_237_8818" x1="999.459" y1="-0.48" x2="999.459" y2="1999.8" gradientUnits="userSpaceOnUse">
<stop stop-color="#54BF7F"/>
<stop offset="0.796875" stop-color="#63ABFF"/>
</linearGradient>
<clipPath id="clip0_237_8818">
<rect width="20" height="20" fill="white"/>
</clipPath>
</defs>
</svg>
