<svg width="38" height="38" viewBox="0 0 38 38" fill="none" xmlns="http://www.w3.org/2000/svg">
<g clip-path="url(#clip0_743_153016)">
<path d="M37.4316 23.5947C34.893 33.7787 24.575 39.9694 14.4055 37.4307C4.22124 34.8921 -1.96949 24.5746 0.569237 14.4052C3.10782 4.22125 13.4109 -1.96949 23.5952 0.569239C33.7646 3.09297 39.9703 13.4106 37.4316 23.5947Z" fill="url(#paint0_linear_743_153016)"/>
<path d="M11.9375 10.25H25.0625V13.5225H11.9375V10.25ZM20.4688 19.545V26.7638H16.5312V19.545H20.4688Z" fill="white"/>
<path d="M18.5 15.4062C13.6963 15.4062 9.81128 16.41 9.81128 17.6337C9.81128 18.8575 13.7094 19.8612 18.5 19.8612C23.2907 19.8612 27.1888 18.8575 27.1888 17.6337C27.1888 16.41 23.2907 15.4062 18.5 15.4062ZM18.5 18.8438C14.0638 18.8438 10.4675 18.1563 10.4675 17.3038C10.4675 16.4513 14.0638 15.7638 18.5 15.7638C22.9363 15.7638 26.5325 16.4513 26.5325 17.3038C26.5325 18.1563 22.9363 18.8438 18.5 18.8438Z" fill="white"/>
<path d="M18.5 18.335C19.1825 18.335 19.8388 18.3213 20.4688 18.28V12.6562H16.5312V18.28C17.1612 18.3075 17.8175 18.335 18.5 18.335Z" fill="white"/>
</g>
<defs>
<linearGradient id="paint0_linear_743_153016" x1="1898.97" y1="-0.911999" x2="1898.97" y2="3799.62" gradientUnits="userSpaceOnUse">
<stop stop-color="#54BF7F"/>
<stop offset="0.796875" stop-color="#63ABFF"/>
</linearGradient>
<clipPath id="clip0_743_153016">
<rect width="38" height="38" fill="white"/>
</clipPath>
</defs>
</svg>
