<svg width="20" height="21" viewBox="0 0 20 21" fill="none" xmlns="http://www.w3.org/2000/svg">
<g clip-path="url(#clip0_933_23691)">
<path d="M19.7008 12.9183C18.3648 18.2783 12.9342 21.5366 7.58186 20.2004C2.22171 18.8643 -1.03657 13.434 0.299599 8.08171C1.63569 2.72171 7.05835 -0.536573 12.4185 0.799599C17.7708 2.12788 21.037 7.55819 19.7008 12.9183Z" fill="url(#paint0_linear_933_23691)"/>
<path d="M6.875 6.75H13.125V8.2375H6.875V6.75ZM10.9375 10.975V14.2563H9.0625V10.975H10.9375Z" fill="white"/>
<path d="M10 9.09375C7.71255 9.09375 5.86255 9.55 5.86255 10.1062C5.86255 10.6625 7.7188 11.1187 10 11.1187C12.2813 11.1187 14.1375 10.6625 14.1375 10.1062C14.1375 9.55 12.2813 9.09375 10 9.09375ZM10 10.6562C7.88755 10.6562 6.17505 10.3438 6.17505 9.95625C6.17505 9.56875 7.88755 9.25625 10 9.25625C12.1125 9.25625 13.825 9.56875 13.825 9.95625C13.825 10.3438 12.1125 10.6562 10 10.6562Z" fill="white"/>
<path d="M10 10.425C10.325 10.425 10.6375 10.4188 10.9375 10.4V7.84375H9.0625V10.4C9.3625 10.4125 9.675 10.425 10 10.425Z" fill="white"/>
</g>
<defs>
<linearGradient id="paint0_linear_933_23691" x1="999.459" y1="0.0200005" x2="999.459" y2="2000.3" gradientUnits="userSpaceOnUse">
<stop stop-color="#54BF7F"/>
<stop offset="0.796875" stop-color="#63ABFF"/>
</linearGradient>
<clipPath id="clip0_933_23691">
<rect width="20" height="20" fill="white" transform="translate(0 0.5)"/>
</clipPath>
</defs>
</svg>
